<?xml version="1.0" encoding="UTF-8"?>
<svg id="Layer_1" data-name="Layer 1" xmlns="http://www.w3.org/2000/svg" version="1.1" xmlns:xlink="http://www.w3.org/1999/xlink" viewBox="0 0 1024 1024">
  <defs>
    <style>
      .cls-1 {
        fill: #a23128;
      }

      .cls-1, .cls-2, .cls-3, .cls-4, .cls-5, .cls-6, .cls-7, .cls-8, .cls-9, .cls-10, .cls-11, .cls-12, .cls-13, .cls-14, .cls-15, .cls-16, .cls-17, .cls-18, .cls-19, .cls-20, .cls-21, .cls-22, .cls-23, .cls-24, .cls-25, .cls-26, .cls-27, .cls-28, .cls-29, .cls-30, .cls-31, .cls-32, .cls-33, .cls-34, .cls-35, .cls-36, .cls-37, .cls-38, .cls-39, .cls-40, .cls-41, .cls-42, .cls-43, .cls-44, .cls-45, .cls-46, .cls-47 {
        stroke-width: 0px;
      }

      .cls-2 {
        fill: #143349;
      }

      .cls-3 {
        fill: url(#linear-gradient-12);
      }

      .cls-4 {
        fill: url(#linear-gradient);
      }

      .cls-5 {
        fill: #fec737;
      }

      .cls-6 {
        fill: #185762;
      }

      .cls-7 {
        fill: url(#linear-gradient-6);
      }

      .cls-8 {
        fill: #9b8581;
      }

      .cls-9 {
        fill: #138374;
      }

      .cls-10 {
        fill: #403469;
      }

      .cls-11 {
        fill: #3f2d3f;
      }

      .cls-12 {
        fill: #0e1230;
      }

      .cls-13 {
        fill: #ec4631;
      }

      .cls-14 {
        fill: url(#linear-gradient-15);
      }

      .cls-15 {
        fill: url(#linear-gradient-11);
      }

      .cls-16 {
        fill: url(#linear-gradient-5);
      }

      .cls-17 {
        fill: #4b3d4d;
      }

      .cls-18 {
        fill: #902339;
      }

      .cls-19 {
        fill: #112538;
      }

      .cls-20 {
        fill: url(#linear-gradient-13);
      }

      .cls-21 {
        fill: #34d399;
      }

      .cls-22 {
        fill: #ed7831;
      }

      .cls-23 {
        fill: #faca79;
      }

      .cls-24 {
        fill: url(#linear-gradient-14);
      }

      .cls-25 {
        fill: url(#linear-gradient-2);
      }

      .cls-26 {
        fill: #455e9a;
      }

      .cls-27 {
        fill: #f36933;
      }

      .cls-28 {
        fill: #faa842;
      }

      .cls-29 {
        fill: url(#linear-gradient-7);
      }

      .cls-30 {
        fill: #fddfab;
      }

      .cls-31 {
        fill: url(#linear-gradient-3);
      }

      .cls-32 {
        fill: #fb8f34;
      }

      .cls-33 {
        fill: url(#linear-gradient-9);
      }

      .cls-34 {
        fill: #4c80b4;
      }

      .cls-35 {
        fill: #b29e95;
      }

      .cls-36 {
        fill: url(#linear-gradient-8);
      }

      .cls-37 {
        fill: #ae2835;
      }

      .cls-38 {
        fill: #3697b7;
      }

      .cls-39 {
        fill: #51e5c9;
      }

      .cls-40 {
        fill: #0f0f3d;
      }

      .cls-41 {
        fill: #f15b2c;
      }

      .cls-42 {
        fill: #133d4c;
      }

      .cls-43 {
        fill: url(#linear-gradient-10);
      }

      .cls-44 {
        fill: #2a204d;
      }

      .cls-45 {
        fill: url(#linear-gradient-4);
      }

      .cls-46 {
        fill: #fefefe;
      }

      .cls-47 {
        fill: #5c1937;
      }
    </style>
    <linearGradient id="linear-gradient" x1="216.3" y1="-175.8" x2="271.7" y2="-192.3" gradientTransform="translate(0 464)" gradientUnits="userSpaceOnUse">
      <stop offset="0" stop-color="#363a78"/>
      <stop offset="1" stop-color="#5370ad"/>
    </linearGradient>
    <linearGradient id="linear-gradient-2" x1="402.2" y1="-192.1" x2="413.9" y2="-215.5" gradientTransform="translate(0 464)" gradientUnits="userSpaceOnUse">
      <stop offset="0" stop-color="#b4e9eb"/>
      <stop offset="1" stop-color="#ddf0f4"/>
    </linearGradient>
    <linearGradient id="linear-gradient-3" x1="415.2" y1="-188.9" x2="451.9" y2="-133.3" gradientTransform="translate(0 464)" gradientUnits="userSpaceOnUse">
      <stop offset="0" stop-color="#178374"/>
      <stop offset="1" stop-color="#1ba38e"/>
    </linearGradient>
    <linearGradient id="linear-gradient-4" x1="340.3" y1="-111" x2="323.5" y2="-99.1" gradientTransform="translate(0 464)" gradientUnits="userSpaceOnUse">
      <stop offset="0" stop-color="#601332"/>
      <stop offset="1" stop-color="#87153b"/>
    </linearGradient>
    <linearGradient id="linear-gradient-5" x1="424" y1="-130.9" x2="407.9" y2="-109.9" gradientTransform="translate(0 464)" gradientUnits="userSpaceOnUse">
      <stop offset="0" stop-color="#f19126"/>
      <stop offset="1" stop-color="#ffb53a"/>
    </linearGradient>
    <linearGradient id="linear-gradient-6" x1="644.8" y1="-78" x2="630.4" y2="-219.8" gradientTransform="translate(0 464)" gradientUnits="userSpaceOnUse">
      <stop offset="0" stop-color="#1a4763"/>
      <stop offset="1" stop-color="#1c768c"/>
    </linearGradient>
    <linearGradient id="linear-gradient-7" x1="327.3" y1="139" x2="374.4" y2="56.6" gradientTransform="translate(0 464)" gradientUnits="userSpaceOnUse">
      <stop offset="0" stop-color="#f6c58e"/>
      <stop offset="1" stop-color="#ffffd6"/>
    </linearGradient>
    <linearGradient id="linear-gradient-8" x1="379.2" y1="-.5" x2="404.8" y2="38.9" gradientTransform="translate(0 464)" gradientUnits="userSpaceOnUse">
      <stop offset="0" stop-color="#fde0a1"/>
      <stop offset="1" stop-color="#ffffe9"/>
    </linearGradient>
    <linearGradient id="linear-gradient-9" x1="489.5" y1="177.2" x2="535.3" y2="159.4" gradientTransform="translate(0 464)" gradientUnits="userSpaceOnUse">
      <stop offset="0" stop-color="#8d2b25"/>
      <stop offset="1" stop-color="#c3402b"/>
    </linearGradient>
    <linearGradient id="linear-gradient-10" x1="551.8" y1="91.4" x2="561.4" y2="166" gradientTransform="translate(0 464)" gradientUnits="userSpaceOnUse">
      <stop offset="0" stop-color="#a62f31"/>
      <stop offset="1" stop-color="#ff6943"/>
    </linearGradient>
    <linearGradient id="linear-gradient-11" x1="583.2" y1="329.7" x2="641.9" y2="278.5" gradientTransform="translate(0 464)" gradientUnits="userSpaceOnUse">
      <stop offset="0" stop-color="#0c1239"/>
      <stop offset="1" stop-color="#2d2f67"/>
    </linearGradient>
    <linearGradient id="linear-gradient-12" x1="651.9" y1="282.9" x2="633.6" y2="370.3" gradientTransform="translate(0 464)" gradientUnits="userSpaceOnUse">
      <stop offset="0" stop-color="#2e3172"/>
      <stop offset="1" stop-color="#485ab4"/>
    </linearGradient>
    <linearGradient id="linear-gradient-13" x1="442.7" y1="118.1" x2="455.9" y2="161.8" gradientTransform="translate(0 464)" gradientUnits="userSpaceOnUse">
      <stop offset="0" stop-color="#1e9eaa"/>
      <stop offset="1" stop-color="#29bac0"/>
    </linearGradient>
    <linearGradient id="linear-gradient-14" x1="467.8" y1="177" x2="529.6" y2="227.5" gradientTransform="translate(0 464)" gradientUnits="userSpaceOnUse">
      <stop offset="0" stop-color="#0d1a2d"/>
      <stop offset="1" stop-color="#193d4c"/>
    </linearGradient>
    <linearGradient id="linear-gradient-15" x1="603.2" y1="12.2" x2="603.7" y2="24.6" gradientTransform="translate(0 464)" gradientUnits="userSpaceOnUse">
      <stop offset="0" stop-color="#196e7b"/>
      <stop offset="1" stop-color="#248598"/>
    </linearGradient>
  </defs>
  <g id="circle">
    <circle class="cls-21" cx="458.9" cy="546.2" r="246.5"/>
  </g>
  <g id="Layer_1-2" data-name="Layer 1">
    <path class="cls-5" d="M836.9,271.8l11-2c5.1-.9,8.9-2.1,13.9-.2-2.5,1.7-5.9,2.6-8.8,3.6l-.3-.7,1-.5c-2-.7-4,0-6,.2l-1.8.2c-2.8.3-6.8,2-9.4,1.3-28.2,5.1-55.3,11.7-82.4,21.2l-33.7,12.3-14.7,5.5c-2.5.9-5.5,2.3-8.2,2.7l2.6-5.5,1.1,1.6c1,.4,1.3.5,2.4.2,3.9-1.1,7.8-3.4,11.7-4.8l43.2-15.8c25.3-9.2,51.7-15.2,78.2-19.5l.2.2Z"/>
    <path class="cls-28" d="M861.9,269.6c3.3-.9,6.4-1.5,9.9-1.3l.4.6-1.3,2.5-78.3,72.6-26.5,28.6c-7,7.3-15.3,14.5-21.3,22.6l-99.5,5.4c.4-1.5,4.2-4.7,5.4-6.1,6.1-7.2,11.4-15.4,17.9-22.3,4.9-6.6,8.9-13.2,12.5-20.6l5.7-10.9,10.9-25.4c2.6-.4,5.7-1.8,8.2-2.7l14.7-5.5,33.7-12.3c27-9.5,54.2-16.1,82.4-21.2,2.6.7,6.6-1,9.4-1.3l1.8-.2c2-.3,4-.9,6-.2l-1,.5.3.7c2.8-1,6.3-1.9,8.8-3.6h-.1Z"/>
    <path class="cls-41" d="M686.7,340.8l71.9-21.1c-.4.7-.7,1.5-1.3,2-2.5,2.2-6.9,4.1-9.8,5.9l-34.2,21.3c-2.8,1.7-7.2,3.5-9.4,5.7-10.8,6.1-21.9,10.5-32.2,17.7-.7.5-1.3.7-2.1.9l-1-.9c4.9-6.6,8.9-13.2,12.5-20.6l5.7-10.9h-.1Z"/>
    <path class="cls-13" d="M861.9,269.6c3.3-.9,6.4-1.5,9.9-1.3l.4.6-1.3,2.5-78.3,72.6c-5.3,0-10.6,1.2-15.8,2l-45.2,7.8c-5.6,1-12.2,2.9-17.9,2.7-1.2,0-3.6-.2-4.4.6-1.3,0-4.1-.4-5,.5h-4c1.2-1.1,3.2-1.6,3.5-3,2.2-2.2,6.7-4,9.4-5.7l34.2-21.3c2.9-1.8,7.3-3.7,9.8-5.9.6-.6,1-1.3,1.3-2,8.2-2.8,16.4-7.9,24.1-11.9l38.4-19.3,21.8-10.3c3.4-1.6,7.1-3,10.2-5,2.8-1,6.3-1.9,8.8-3.6h0Z"/>
    <path class="cls-37" d="M703.8,354.7c-.4,1.5-2.4,1.9-3.5,3h4c.9-.9,3.7-.5,5-.5.8-.8,3.2-.6,4.4-.6,5.7.2,12.3-1.7,17.9-2.7l45.2-7.8c5.2-.8,10.5-2.1,15.8-2l-26.5,28.6c-7,7.3-15.3,14.5-21.3,22.6l-99.5,5.4c.4-1.5,4.2-4.7,5.4-6.1,6.1-7.2,11.4-15.4,17.9-22.3l1,.9c.8-.2,1.4-.4,2.1-.9,10.3-7.2,21.4-11.5,32.2-17.7h-.1Z"/>
    <path class="cls-26" d="M201.3,262.9l30.9,7.2c3,.8,6.2,1.5,9.2,2.5l-.9.6-4-1.1c-1.1-.3-1.8-.6-2.9-.6l-.8.6-21.1-4.6-11-3.1.6-1.6h0Z"/>
    <path class="cls-10" d="M165.4,255.8l35.9,7.1-.6,1.6,11,3.1-.9,1.4.8.6.2.3-14.8-4.5-29.2-7.7-1.9-.4-.3-1.4h-.2Z"/>
    <path class="cls-27" d="M477.2,392.3c.5,8,2.4,16,3.7,23.9.6,3.4,1.4,7.2,1.3,10.7l-13.7-9.4v-.4c.4-.3.7-.4,1-.7,3.1-3.1,7.7-19.5,7.7-24.1Z"/>
    <path class="cls-46" d="M445.2,263.1c1.4.7,2.4,1.5,3.2,2.8,3,5,5.2,10.7,7.9,15.8l9.6,18.4c1.3,2.5,2.9,5.1,3.8,7.7.5,1.4,0,3.4-.3,4.8l-3.9-3.2c-.8-3.2-2.9-6.1-4.4-9.1l-10.6-21.7c-1.7-3.8-3.8-7.9-4.6-12v-.5l-1.3-.9h-1.9c.9-.3,1.7-.4,2.6-.8l-.4-.6.3-.8h0Z"/>
    <path class="cls-4" d="M211.7,267.6l21.1,4.6.8-.6c1.1,0,1.9.3,2.9.6l4,1.1.9-.6,47.9,10.4c-3.2.1-5.3,0-8.2-1h-1.8c-1.1-.2-3.2-1.1-4.1-.5-1.8,1.3-3.5,2.1-5.6,2.6v.4c1,.4,1.9.6,3,.8.6.1,1.5.3,2,.5l.5.3c.9.5.2.2,1.5.4l7,2,1.1.6v.6c-.1,0-72.9-19.8-72.9-19.8l-.2-.3-.8-.6.9-1.4h0Z"/>
    <path class="cls-34" d="M284.5,289.7v-.6c.1,0-1-.6-1-.6l-7-2c-1.3-.2-.7.1-1.5-.4l-.5-.3c-.5-.2-1.4-.4-2-.5-1-.2-2-.5-3-.8v-.4c2.2-.5,3.8-1.4,5.6-2.6.8-.6,3,.4,4.1.5h1.8c2.9,1,5,1.2,8.2,1l15.5,3,.7-.6c1.4,0,2.2,0,3.6.4l.7.2c1.5.5,2.7,1.3,4,2.2l.7.4c2.9,2,6.1,5,8.1,7.8l.5.9-.2,1h-6c-4.2-1.7-8.7-2.5-13.2-3.5-6.4-1.4-12.9-3.1-19.2-5.2h0Z"/>
    <path class="cls-38" d="M305.4,285.4c7.3-6.4,17.8-10.7,26.6-14.9l18.4-9.1,13.3-6.7c3.1-1.6,5.9-3.3,9.4-3.7v.9c-3.4,4-7.4,7.3-11.2,10.8l-22.5,19.7c-5.6,4.7-11,9.7-16.8,14-2-2.9-5.2-5.8-8.1-7.8l-.7-.4c-1.3-.9-2.5-1.7-4-2.2l-.7-.2c-1.3-.5-2.2-.5-3.6-.4h0Z"/>
    <path class="cls-22" d="M473.1,319c1.3,2.9.8,6.1.8,9.1,0,17,1.8,33.7,2.7,50.7l-32.4-9.9,22.5-38.2c2.1-3.8,4.5-7.6,5.9-11.7h.5Z"/>
    <path class="cls-25" d="M373.1,251.1c6.6-1.9,13.5-1.7,20.4-1.5,3.6,0,7.6,0,11.1.7,9.2,2,18.6,5.6,27.5,8.6,4.3,1.4,9.1,2.3,13.2,4.3l-.3.8.4.6c-.9.4-1.7.5-2.6.6h1.9c-4.1,1.9-9.1,2.6-13.5,3.8l-15.3,4.7c-2.4.8-6.1,1.4-8,3-3.8-4.3-9.2-7.5-13.8-10.8-6.7-4.7-13.6-10-20.9-13.8v-.9h-.1Z"/>
    <path class="cls-9" d="M422.5,330.6c12.2-2.3,24.2-3.7,36.3-6.7,2.6-.6,5.3-1.4,7.8-2.4,2.1-.9,3.8-2.1,6.1-2.5-1.4,4.1-3.8,7.9-5.9,11.7l-22.5,38.2h-.6c0,.1-2.9-4.4-2.9-4.4-1.3-3.5-3.6-7-5.4-10.3l-12.8-23.6h-.1Z"/>
    <path class="cls-12" d="M130.9,250.7l-.4-.6c8.8-.4,18.8,2.5,27.4,4.2,2,.4,5.8.6,7.4,1.5l.3,1.4,1.9.4,29.2,7.7,14.8,4.5,72.8,19.8c6.2,2.1,12.7,3.7,19.2,5.2,4.4,1,8.9,1.8,13.2,3.4l-1.8,2-5.3,5.1c-2.8,2.3-5.4,5.1-9,5.7l-3.5.5c-2.9-3.8-10.8-6.1-15.2-8.1-28.7-12.7-58.8-23.5-88.7-33l-62.3-19.9v.2Z"/>
    <path class="cls-39" d="M373,252c7.2,3.9,14.2,9.1,20.9,13.8,4.7,3.3,10.1,6.5,13.8,10.8,2-1.6,5.6-2.3,8-3l15.3-4.7c4.4-1.1,9.3-1.9,13.5-3.6l1.2.9v.5c.9,4.1,2.9,8.2,4.6,12l10.6,21.7c1.5,2.9,3.6,5.9,4.4,9.1l3.9,3.2c1.4,1.4,3.8,3.1,3.9,5.1,0,.4-.1.9-.2,1.3h-.4c-2.3.4-4,1.6-6.1,2.5-2.4,1.1-5.2,1.8-7.8,2.4-12.1,3-24.1,4.4-36.3,6.7-.6-.5-1.3-.8-1.9-1.2h-.5c-2.1-1.6-5.4-2.8-7.9-4.1l-.2.8.2,1.3c-2.1,1.2-4.6,0-6.9,1.2h-.2c-2.4,1.4-2.8,1.8-4.2,4.1h0c-5.6,1.5-11.2,3.1-17,3.4l-6.7-.2c-9.8-6-16.6-16.1-20.7-26.5-5-4.1-14-5.8-20.2-7.5-4.6-1.3-8.7-2.8-13.4-3.6l.2-1-.5-.9c5.8-4.3,11.2-9.3,16.8-14l22.5-19.7c3.8-3.5,7.9-6.9,11.2-10.8h.1Z"/>
    <path class="cls-9" d="M408.1,276.8l.6.4c.2,1,.5,1.8.9,2.6,2.4,4.6,4,10.6,5.4,15.7l1.5,5c.3,1.4.7,2.6,1,4l1.5,7,.5,2.5c.2,1,1,4.3.7,5.2-.5,1.7-1,1.5,0,3.5s.3,1.6.5,2.6l.3.9-.4,1.1h-.5c-.6-.3-.4-.2-.9-.3-1-.4-2.1-2-2.9-2.8-1.6-1.6-3.4-3.3-4.7-5.1-1.7-2.4-2.8-5.5-4.1-8.2-3.3-6.5-7.9-13.8-15.3-16.1-12.1-3.8-19.7,1.6-28.4,9.3-1.9,1.7-4,3.8-6.3,4.9l-.9.4c-5-4.1-14-5.8-20.2-7.5-4.6-1.3-8.7-2.8-13.4-3.6l.2-1c9.9,0,20.1,0,29.9-1.6,10.6-1.8,21-5.4,30.8-9.5,7.8-3.2,16.2-7.9,24.4-9.6l-.2.2Z"/>
    <path class="cls-31" d="M408.7,277.2c5.5,1.8,10.6,5.5,15.6,8.3l41.2,23.9,3.9,3.2c1.4,1.4,3.8,3.1,3.9,5.1,0,.4-.1.9-.2,1.3h-.4c-2.3.4-4,1.6-6.1,2.5-2.4,1.1-5.2,1.8-7.8,2.4-12.1,3-24.1,4.4-36.3,6.7-.6-.5-1.3-.8-1.9-1.2l-1.4-2.3c.5,0,.3,0,.9.2h.5c0,.1.4-1,.4-1l-.3-.9c-.2-1,0-1.6-.5-2.6-1-2-.4-1.7,0-3.5.3-.9-.6-4.2-.7-5.2l-.5-2.5-1.5-7c-.3-1.4-.7-2.6-1-4l-1.5-5c-1.4-5.1-2.9-11.1-5.4-15.7-.5-.9-.7-1.6-.9-2.6h0Z"/>
    <path class="cls-12" d="M356.5,309.5l.9-.4c2.3-1.1,4.4-3.2,6.3-4.9,8.7-7.7,16.3-13,28.4-9.3,7.4,2.3,12,9.6,15.3,16.1,1.3,2.6,2.4,5.8,4.1,8.2,1.3,1.8,3.2,3.5,4.7,5.1.8.8,2,2.3,2.9,2.8l1.4,2.3h-.5c-2.1-1.6-5.4-2.8-7.9-4.1l-.2.8.2,1.3c-2.1,1.2-4.6,0-6.9,1.2h-.2c-2.4,1.4-2.8,1.8-4.2,4.1h0c-5.6,1.5-11.2,3.1-17,3.4l-6.7-.2c-9.8-6-16.6-16.1-20.7-26.5h.1Z"/>
    <path class="cls-44" d="M375.4,309l-1.2.9-.5-.7c.5-3.4,1-4.9,3.6-7.3,1.8-1.6,2.3-1.7,4.6-1.7-1.5,1.4-2.6,2.7-3.6,4.5-1.2,1.3-2.5,2.6-3,4.3h.1Z"/>
    <path class="cls-17" d="M395.5,307.2l.3.6c1,2.1,1.7,4.8,2.1,7.1l.8,3.1c4.3,2.9,9.4,4.5,13.6,7.3l-.2.8.2,1.3c-2.1,1.2-4.6,0-6.9,1.2h-.2c-3.6-2.1-5.8-2.9-8.2-6.6-1.6-3.1.6-7.2-1.1-10.5l-.9-1.3c-.8-.2-1.4-.4-2.3-.2-.8.2-1.1,0-1.9-.3,2.1-.1,3.1-1.1,4.6-2.4h.1Z"/>
    <path class="cls-11" d="M397,322l2,.4c3.4,2,7.5,4.5,11.5,3.6h1.6c0,.1.2,1.4.2,1.4-2.1,1.2-4.6,0-6.9,1.2h-.2c-3.6-2.1-5.8-2.9-8.2-6.6Z"/>
    <path class="cls-46" d="M382,300.2c2.3-1.2,3.4-1.8,6.1-1.1,2.4.6,4.9,2.4,6,4.7l.6,1.5.9,2c-1.4,1.3-2.5,2.3-4.6,2.4-.7-.2-1.1-.5-1.7-.9-3.8-3-6-3.4-10.8-4,1-1.8,2.1-3,3.6-4.5h-.1Z"/>
    <path class="cls-40" d="M378.4,304.7c4.8.6,7,1,10.8,4,.6.5,1,.7,1.7.9.8.3,1,.5,1.9.3s1.4,0,2.3.2l.9,1.3c-1.2.2-1.4.4-2.3,1.4l-.8,1.2c-2,2.5-5.9,5.3-9.2,5.6-2,.2-4-.6-5.5-2-1.2-1.1-2.1-2.6-2.1-4.2s0-1.2-.5-2v2c-.1,0-.5.3-.5.3,0-1.2,0-2.3.3-3.4l.2-.7-.3-.6c.6-1.7,1.8-3,3-4.3h.1Z"/>
    <path class="cls-41" d="M316.8,298.3h6c4.7.8,8.9,2.4,13.4,3.6,6.2,1.7,15.2,3.3,20.2,7.5,4.2,10.5,11,20.5,20.7,26.5l6.7.2c5.8-.3,11.4-1.9,17-3.3h0c1.4-2.4,1.9-2.8,4.2-4.2h.2c2.3-1.2,4.8,0,6.9-1.3l-.2-1.3.2-.8c2.5,1.3,5.8,2.4,7.9,4.1h.5c.6.3,1.3.7,1.9,1.2l12.8,23.6c1.8,3.3,4.1,6.8,5.4,10.3l2.9,4.5h.6c0-.1,32.4,9.8,32.4,9.8l.7,13.5c0,4.6-4.6,21.1-7.7,24.1-.3.3-.5.4-.9.7v.4l-1.1,1-11,21.9c-3.3,6.4-8.6,13.5-10.1,20.5v.6l-.4.8-.6-.2c-2.6-.9-4.8-2-7.2-3.3-.8-1.2-4.5-3-5.9-3.9-7.6-4.8-16.5-9.3-23.3-15.1-4.8-2.4-9.4-5.7-14-8.5l-32.3-20.9-.6-.6-47.5-56c-2.8-3.9-5.5-7.9-7.5-12.2-1.6-3.4-2.3-7.1-3.4-10.7l-6.3-19.2,3.5-.5c3.6-.6,6.3-3.4,9-5.7l5.3-5.1,1.8-2h-.2Z"/>
    <path class="cls-1" d="M373,349.1c4.5,8.4,7.5,17.8,11.2,26.5l16.3,38,5.1,13c1.2,3.4,2,6.8,4,9.8l.8,1.3-.7.5v-.4c-.4-.9-1.1-1.1-1.6-1.8l-.4-.8-.6-.4-.2.5c-.3.7-.7,1.1-1.2,1.7l.5.2c1,.4,1.7,1,2.4,1.7v.9c-4.7-2.4-9.3-5.7-13.9-8.5l-32.3-20.9-.6-.6c.5-.8.7-1.7,1-2.6-.3-2.4.6-5.9,1-8.3l2.7-17,3.6-15.9c1.1-5.6,1.6-11.3,2.9-16.8h0Z"/>
    <path class="cls-18" d="M309.8,305.5l5.3-5.1c1.7,2.5,4.6,3.6,7.5,4.2,2,.4,4,.4,5.9,1.2l-.7.8-7.8-.3c11.3,10.2,24.9,18.1,37,27.3,5.6,4.3,12.4,9.5,16.1,15.6-1.3,5.5-1.8,11.2-2.9,16.8l-3.6,15.9-2.7,17c-.4,2.4-1.3,5.9-1,8.3-.3.9-.5,1.8-1,2.6l-47.5-56c-2.8-3.9-5.5-7.9-7.5-12.2-1.6-3.4-2.3-7.1-3.4-10.7l-6.3-19.2,3.5-.5c3.6-.6,6.3-3.4,9-5.7h.1Z"/>
    <path class="cls-45" d="M297.2,311.7l3.5-.5c3.6-.6,6.3-3.4,9-5.7,0,1-.3,2.4.2,3.2,2.9,4.1,5,8.8,7.2,13.2l9.1,17.6,15.2,27.6,13.8,27.3c2.1,4.1,6.6,8.5,7.6,12.7-.3.9-.5,1.8-1,2.6l-47.5-56c-2.8-3.9-5.5-7.9-7.5-12.2-1.6-3.4-2.3-7.1-3.4-10.7l-6.3-19.2h0Z"/>
    <path class="cls-28" d="M412.2,325.4c2.5,1.3,5.8,2.4,7.9,4.1h.5c.6.3,1.3.7,1.9,1.2l12.8,23.6c1.8,3.3,4.1,6.8,5.4,10.3l2.9,4.5h.6c0-.1,32.4,9.8,32.4,9.8l.7,13.5c0,4.6-4.6,21.1-7.7,24.1-.3.3-.5.4-.9.7v.4l-1.1,1-11,21.9c-3.3,6.4-8.6,13.5-10.1,20.5-1.7-2.6-2.8-5.9-4-8.8l-9.5-27-11.3-29.7c-3.8-6.4-9.3-12.3-13.5-18.5l-11.6-17.2c-4.2-6.6-8.2-14-13.2-20l-1.8-1.6-1.2-1.4,2.7-.2.9-.4c5.8-.3,11.4-1.9,17-3.3h0c1.4-2.4,1.9-2.8,4.2-4.2h.2c2.3-1.2,4.8,0,6.9-1.3l-.2-1.3.2-.8h0Z"/>
    <path class="cls-13" d="M444.1,368.9l32.4,9.9.7,13.5c0,4.6-4.6,21.1-7.7,24.1-.3.3-.5.4-.9.7l-25-48.1h.6-.1Z"/>
    <path class="cls-16" d="M412.2,325.4c2.5,1.3,5.8,2.4,7.9,4.1h.5c.6.3,1.3.7,1.9,1.2l12.8,23.6c1.8,3.3,4.1,6.8,5.4,10.3l-1,.4-.5.4c-1.7,0-4.1-2-5.7-2.9l-17.9-9.6c-9.6-4.8-21.7-11.4-32.4-13l-1.8-1.6-1.2-1.4,2.7-.2.9-.4c5.8-.3,11.4-1.9,17-3.3h0c1.4-2.4,1.9-2.8,4.2-4.2h.2c2.3-1.2,4.8,0,6.9-1.3l-.2-1.3.2-.8h.1Z"/>
    <path class="cls-47" d="M412.2,325.4c2.5,1.3,5.8,2.4,7.9,4.1l-19.2,3.4h0c1.4-2.4,1.9-2.8,4.2-4.2h.2c2.3-1.2,4.8,0,6.9-1.3l-.2-1.3.2-.8h0Z"/>
    <path class="cls-5" d="M381.4,338.1c.5-.2,1-.5,1.6-.6,1.7-.2,5.1,1.5,6.8,2.1,4.9,1.6,9.7,2.2,14.5,4.4,9.3,4.3,17.9,8.9,26.5,14.4,3.1,2,6.4,3.7,8.9,6.4l-.5.4c-1.7,0-4.1-2-5.7-2.9l-17.9-9.6c-9.6-4.8-21.7-11.4-32.4-13l-1.8-1.6h0Z"/>
    <path class="cls-41" d="M738.5,129.9l1.1.6c1.2,1.1,2.2,2,2.3,3.7.3,4.5-.7,9.7-1.2,14.2-2.6,22.6-7.2,45.6-12.1,67.8l-3.2,12.5c-.3,1-1.1,2.9-1,3.8l-24.2,77.4-2.6,5.5-10.9,25.4-5.7,10.9c-6,1.4-11.1,4.9-17.1,6.2-8.4,1-16.9,4.3-24.9,6.9-19.1,6.1-38.3,12.6-56.6,20.8l-21.3,9.9c-3.3,1.6-6.6,3.4-10,4.7,3.7-3.9,8.8-6.7,13.1-9.9,6.2-4.6,12.9-10.9,17.8-16.9-1,0-1.6.5-2.3,1.2l-1.1,1.2c-1.8,1.9-3.6,3.8-5.7,5.3-2.2,1.7-3.9,4.9-6.5,5.7-1.1,1.2-3,3.1-4.5,3.5l-.4.5c-.6.6-1.2.8-1.8,1.3l-.5.5-.7.2c-.7.4-.5.7-1.5,1l-.5.6c-.8.9-1.4,1.2-2.4,1.7s-.9.7-1.4,1.3h-.6l-.4.4c-1.3,1.1-3,2-4.4,3-1,.8.3-.2-1.2.6l-.9.8-.6.2c-1.1.5-1.4,1.3-2.6,1.2l.4-1.2-.3-.3c-.6,1.4-.9,2.9-2.1,3.9-6.7,5.7-15,9.9-22.1,15.4-5.1,4-9.5,9.7-14.9,13.1,1.6-3.1,4.1-5.3,5.7-8.5l.8-1.5c-.9,0-.4-.1-1.3.5v.5c-.3,1.2-1,2.1-1.9,3-.3-1.1-.2-1.4-1.1-2.2l1.1-3.2h-.5l-3.7,5.8-1.5.4c2.9-8.6,8.6-16.8,13.1-24.7l40.3-65.8,19.8-29.7,5.7-9.5c1.5-3.2,3.9-6.3,6-9.2l15.7-20.8c3.7-4.9,7-10.2,11.2-14.7,1.5-2.5,3.7-4.9,5.6-7.2,5.8-7.3,12.5-14.3,17.7-22.1,2.3-3.5,5.3-6.5,8-9.6l15.3-16.5,62.7-57.2c4.9-4.1,10.7-10.6,16.7-13v.6Z"/>
    <path class="cls-5" d="M738.5,129.9l1.1.6c-3.8,4.7-6.4,10.3-9.5,15.5l-16.5,26-31.9,49.4-33.1,47.1c-.7-.3-1.9-.7-2.4-1.2-1.2-1.2-2-5-2.5-6.7l-5.3-23.8c-.7-3.5-.9-7.6-2.6-10.7,2.3-3.5,5.3-6.5,8-9.6l15.3-16.5,62.7-57.2c4.9-4.1,10.7-10.6,16.7-13h0Z"/>
    <path class="cls-32" d="M612.6,255.4c1.5-2.5,3.7-4.9,5.6-7.2,5.8-7.3,12.5-14.3,17.7-22.1,1.7,3.2,1.9,7.2,2.6,10.7l5.3,23.8c.4,1.7,1.2,5.4,2.5,6.7.5.5,1.7.9,2.4,1.2l-4.5,6.1-62.5,76.6-10.8,12.1,1.1-6.9c1.1-8.5,3.6-16.9,5.2-25.3.6-3.4.3-6.8.8-10.1.6-3.8.8-7.7,1.2-11.5.4-3,1.3-6.6.6-9.5,1.5-3.2,3.9-6.3,6-9.2l15.7-20.8c3.7-4.9,7-10.2,11.2-14.7h0Z"/>
    <path class="cls-28" d="M612.6,255.4c1.5-2.5,3.7-4.9,5.6-7.2,5.8-7.3,12.5-14.3,17.7-22.1,1.7,3.2,1.9,7.2,2.6,10.7l5.3,23.8c.4,1.7,1.2,5.4,2.5,6.7.5.5,1.7.9,2.4,1.2l-4.5,6.1h-.7c0-.9.9-1.7,1.5-2.5.7-.9,1.3-1.2,1.3-2.4-1-1.5-2.1-3-2.4-4.8-.2-1.1,0-.3-.4-1.6-.4-1-.3-.6-.5-1.5v-.6c-.8-2.3-1-4.7-1.6-7-.3-.9-.3-1.6-.5-2.5-.2-.7-.4-1.3-.4-2.1v-.9l-.6-.5v-1l-.3-1c-.2-.9,0-1.5-.4-2.4-.3-.9-.5-1.6-.8-2.5-1.2,0-1.8,0-2.8-.6l-.6-.4c-.5,0-1.9-.2-2.3,0,0,0-1.6,1-1.7,1-.6.2-1.5-.2-2.1,0-1.6.5-3.1,1.7-4.4,2.8-.9.8-1.2-.3-2.1.8l-5.5,6.8c-1,1.3-1.6,2.7-3.2,3.3l-.9.4h-.2Z"/>
    <path class="cls-7" d="M724.4,232.6l-24.2,77.4-2.6,5.5-10.9,25.4-5.7,10.9c-6,1.4-11.1,4.9-17.1,6.2-8.4,1-16.9,4.3-24.9,6.9-19.1,6.1-38.3,12.6-56.6,20.8l-21.3,9.9c-3.3,1.6-6.6,3.4-10,4.7,3.7-3.9,8.8-6.7,13.1-9.9,6.2-4.6,12.9-10.9,17.8-16.9,4.3-3.6,8.1-7.9,12.1-11.9l22.6-22.9,83.3-83.9,14.1-13.6c3.2-3.1,6.2-6.6,10.2-8.7h.1Z"/>
    <path class="cls-30" d="M597.4,625.9c-5-7.7-10.8-14.7-16-22.3l-7.1-10.6c-1.1-1.6-2-3.8-3.5-5.1-3.7-3.3-8.6-10.7-10.3-15.4l1-1c1.8,2.5,3.6,5.5,5.8,7.7s2.5,1.8,3.7,2.8c1.5,1.2,2.8,2.8,4,4.2l15.2,19.6c7.1,9.3,14.2,18.4,19.9,28.6,1.2,2.8,1.7,5.3,2.2,8.3-1.8-.9-3.1-2.5-4.4-4-3.7-4.1-7-8.6-10.4-12.9h-.1Z"/>
    <path class="cls-6" d="M423,746.1c3.6.9,9.3-1.4,12.8-2.6,1.6-.6,3.3-1.4,5-1.3l.7,1.9.8-.7c3.1,1.2,5.5,3.3,8,5.5l1.1,3.1,1.1,16.9c.2,3.3.5,7.5-.2,10.7h-.8c0,0-4.1-.4-4.1-.4-.4.5-.5.9-.6,1.5-1.4-2.9-4.7-2.7-6.9-4.7-.4-.4-.9-1.6-1.3-2.2,0-1.5-2.3-4-3.2-5.3l-7.1-10.7c-2.5-3.9-4.9-6.7-5.3-11.5v-.2Z"/>
    <path class="cls-42" d="M441.4,744.1l.8-.7c3.1,1.2,5.5,3.3,8,5.5l1.1,3.1,1.1,16.9c.2,3.3.5,7.5-.2,10.7h-.8c0,0-4.1-.4-4.1-.4-.4.5-.5.9-.6,1.5-1.4-2.9-4.7-2.7-6.9-4.7-.4-.4-.9-1.6-1.3-2.2,1.2,0,3.3,0,4.3.8,1.7,1.6.8,2.3,3.5,3.1l.6-.6c-.9-10.8-4.9-21.4-5.4-32.4v-.5h-.1Z"/>
    <path class="cls-38" d="M621.4,654.9c1.6,1.3,2.3,2.6,3.2,4.4,5,10.2,8.7,20.9,13.3,31.3l31.1,70.8c.8,1.5,1.8,3.1,2.5,4.7-3.4-.5-9.4-6.2-12.4-8.5l-11.6-7.9-16.7-11.1c-2.3-1.3-4.2-2.4-5.3-4.9l-.9-.3-1.9-55.3c.4-7.7-.6-15.6-1.2-23.3h0Z"/>
    <path class="cls-34" d="M625.4,733.7c12.4,6.3,24.2,15.1,36,22.7,2.1,1.3,4.4,3.9,6.5,4.9.3.2.7,0,1.1,0,.8,1.5,1.8,3.1,2.5,4.7-3.4-.5-9.4-6.2-12.4-8.5l-11.6-7.9-16.7-11.1c-2.3-1.3-4.2-2.4-5.3-4.9h0Z"/>
    <path class="cls-32" d="M314.5,353.8l47.5,56,.6.6-.6.3.3.8c.7,1.8,1.8,3.4,2.5,5.3,2.3,6.1,3.6,12.6,5.6,18.8,1.1,3.5,2.9,6.9,3.4,10.5l-5.1.8c-11.8-.3-23.9-.9-35.4-3.4l-.7-3.5-10.9-49.9c-2.6-11.9-7.2-24-7.1-36.2h0Z"/>
    <path class="cls-23" d="M361.9,410.6l.3.8c.7,1.8,1.8,3.4,2.5,5.3,2.3,6.1,3.6,12.6,5.6,18.8,1.1,3.5,2.9,6.9,3.4,10.5l-5.1.8c-11.8-.3-23.9-.9-35.4-3.4l-.7-3.5c2.1-4,5.7-6.8,8.9-9.8l11.2-10.4c3.1-3,5.8-6.6,9.2-9.2h.1Z"/>
    <path class="cls-29" d="M333.5,496.2h.6c1.4-.1.3,0,1.5-.4.9-.2,1-.1,1.8,0,1.8.4,3.4-.2,5.2-.3-1.8.8-3.6,1-5.5,1.1,1,1.4,1.9,2.2,3.3,3.1.8.5,1.1.6,1.5,1.4l-.4.2c2.5,2.4,5.6,4.2,8.5,6.2,7.9,5.7,16.4,10.9,24,16.8h.5c3.1,2.6,6.9,4.7,10.4,6.9l21.4,13.9-.6.5.6.4h2.7v.3l-23.3,50.4-1,1.2c-7.5,9.8-13.4,21.3-20,31.8-1.2,1.8-2.1,3.9-3.3,5.7-3.3-4.8-6.4-9.7-8.7-15l-4.5-5c-2.7-3.7-4.9-8.2-7-12.2-1.5-2.8-3.4-5.8-4.2-8.9-.9-3.6-1-7.5-1.3-11.2l-1.3-22.5-1.4-45.6c0-6.2-.4-12.7.5-18.9h0Z"/>
    <path class="cls-30" d="M356.6,542.4c.3-1.3.8-2.6.6-3.9-.3-2.8-3.8-7.3-5.2-9.9l-9.4-17.6c-2.9-5.3-6.1-10.2-8.5-15.8l7.4,6.2c2.5,2.4,5.6,4.2,8.5,6.2,7.9,5.7,16.4,10.9,24,16.8l-17.4,17.9h0Z"/>
    <path class="cls-28" d="M338.1,562.9c.7,0,1.3.2,1.9.6,3.3,2.3,6.5,5.8,9.8,8.4l23.9,18.4c3.1,2.4,7.3,6.9,11,7.7-7.5,9.8-13.4,21.3-20,31.8-1.2,1.8-2.1,3.9-3.3,5.7-3.3-4.8-6.4-9.7-8.7-15-1-4.5-2.9-8.8-4.4-13.2-4.8-14.2-9.7-29.3-10.2-44.4h0Z"/>
    <path class="cls-32" d="M374,524.5h.5c3.1,2.6,6.9,4.7,10.4,6.9l21.4,13.9-.6.5.6.4h2.7v.3l-23.3,50.4-1,1.2c-3.8-.9-7.9-5.3-11-7.7l-23.9-18.4c-3.3-2.6-6.4-6.1-9.8-8.4-.6-.4-1.2-.5-1.9-.6l.5-1.1,18.1-19.5,17.4-17.9h-.1Z"/>
    <path class="cls-23" d="M374,524.5h.5c3.1,2.6,6.9,4.7,10.4,6.9l21.4,13.9-.6.5.6.4c-4,1.9-9.9,2.7-14.3,3.8l-28.5,6.7c-8.3,1.7-16.8,2.9-24.9,5.2l18.1-19.5,17.4-17.9h-.1Z"/>
    <path class="cls-12" d="M490.6,721.7c0-20,.8-40.1-2.4-59.9l14,16.7.5.5-1,1c.3,1.7,1.2,3.4,1.7,5l10.4,27.2,9.1,25.8,8.2,20c.3.8.2,1.6.2,2.5-5.1-4.2-10.8-8.2-15.1-13.2-4.4,5.8-6.9,12.8-10.3,19.2-2.2,4.1-5,7.8-7.4,11.7-.7,1-1.8,3.6-2.6,4.3-2.5,2.1-7.9,2.5-10.7,4.4-4.2,2.9-24.7,34.6-27.2,40.8l-.8,2c1.6.5,5.1,1.2,5.8,2.8.8,1.6.9,3.2.9,4.9-1.3.8-2.9.9-4.4,1.2-2.4.4-5.8.7-7.9,2-2.6,1.6-4.3,6.6-4.9,9.3-.6,2.6,0,6.1.2,8.8-1.3.6-1.9.8-3.3.7l-1.5,2.1-.6.8-1.6.2c-2.5,0-4.5-2-6.1-3.7-2.6,0-4.4.2-6.6,1.7-1.8,0-2.9,0-4.6-.7l-2.8-.6-1.5,1.2.2.9-.5.5-2.5-2.9c-2.2.2-4.2.3-6.2,1.4-1.9.4-3.4.6-5.3.2-2.6-2.5-5.2-5.2-6.8-8.5l-5-4c-1.4,2.9-2.7,7.1-4.8,9.5-1.5-3.8-.8-9.1.5-12.9,2.2-6.2,7.1-9.7,12.8-12.5,3-1.5,6.5-1.2,9.8-1.2,1.9-1.1,3.6-2.5,5-4.1,6.5-7.3,11.8-16.1,17.4-24.2,4.8-7,11-14.1,14-22.1.1-.7.2-1,.6-1.5l4.1.3h.8c.8-3.1.4-7.3.2-10.6l-1.1-16.9.3-3.3c.6-.4.7-.8,1.5-.6,1.5.4,2.5,1.7,3.6,2.7l.5.5.3.3c1.9-1.1,4.1-.9,6.2-.9l11.1-.7c5.2-.4,10.1-1,15.2-2.1.3-1.3.3-1.5,1.3-2.4l.3-1.3,1.2-.4-1.1-.3-.2-7.2c0-1.5.4-3.1,0-4.6-.8-3.3.2-6.6-1-10v.2ZM479.5,783.1h-.4c-4.1-2-7.6-8.2-9.4-12.1-4.9,1.5-4.6,6-8,8.7-2.2,1.7-5.8,1.3-8.1,3-6.3,4.8-11.2,14.7-15.7,21.2-5.1,7.4-10.8,14.5-15,22.5-.4.8-.7,1.4-.9,2.3,1.9,1.1,5.3,3.7,7.3,4.2,1,.2,3.6-.4,4.7-.5,4.8-.5,9.6-1.1,14.4-1.1,6.2-7.3,11.1-15.9,16.4-23.9,5.1-7.7,10.6-15.4,14.9-23.5l-.3-.7h.1Z"/>
    <path class="cls-35" d="M392,848c1.4-4.1,4.1-7.4,7.5-10l-.3.7c-1.6,4.1-2.4,8.9-2.3,13.3l-5-4h0Z"/>
    <path class="cls-8" d="M430.4,845.9c1,2,.6,4.2,1,6.4.3,2.3,1.3,4.4,2.3,6.5-2.6,0-4.4.2-6.6,1.7-1.2-1.5-1.7-2.7-1.7-4.6,0-4.3,2.3-6.9,5.1-9.9h0Z"/>
    <path class="cls-35" d="M409.1,860.2h-2.6c-1.1-.7-1.7-1.1-2.4-2.2-1.5-2.5-2.2-4.7-1.4-7.5l.2-.9.7-2.4c1.3-3.5,2.7-7.3,6.3-9l.6.4c-1.3,2.4-2.2,5.2-2.1,8,.2,4.7,2.8,8.6,6.2,11.7l.5.5c-2.2.2-4.2.3-6.2,1.4h.2Z"/>
    <path class="cls-35" d="M418.1,860.4l-2.4-5.3c-2-6.2,0-11.1,3-16.5,3.6,0,7.6.5,11.1-.2h.5c-2.2,2.2-5,4.7-6.7,7.4-1.6,2.4-3.2,9.1-2.2,11.9l.3.6.4.9.3.7-2.8-.6-1.5,1.2h0Z"/>
    <path class="cls-35" d="M434.2,848.5c1.1-4,3-8.2,6.8-10.4l2.2-1,.2.3c-.5.5-1.6,1.4-1.9,1.9-.7,1.4-.9,6.6-.9,8.2,0,3.2.9,9.6,2.9,12l-1.5,2.1-.6.8-1.6.2c-2.5,0-4.5-2-6.1-3.7-1-2.1-1.9-4.2-2.3-6.5-.3-2.2,0-4.4-1-6.4l1-.3c.9,1,1.7,2,2.7,2.9h0Z"/>
    <path class="cls-44" d="M430.4,845.9l1-.3c.9,1,1.7,2,2.7,2.9.2,3.8.3,8,3.4,10.8,1.1,1,2.8,2.1,4.3,2.3l-.6.8-1.6.2c-2.5,0-4.5-2-6.1-3.7-1-2.1-1.9-4.2-2.3-6.5-.3-2.2,0-4.4-1-6.4h.2Z"/>
    <path class="cls-2" d="M490.2,747.9c.3-1.3.3-1.5,1.3-2.4l.9,34.5-.8.9c-2.9.7-9.3,1.5-12,0l.9-.6c0-4.2,1.5-7.9,2.9-11.8,2.5-6.8,5.7-13.6,6.8-20.8h0Z"/>
    <path class="cls-42" d="M490.2,747.9c-1,7.2-4.3,14-6.8,20.8-1.4,3.9-3,7.6-2.9,11.8l-.9.6c-2.1-1.7-3.6-4.7-5.2-6.9s-3.5-4.3-5.3-6.3c-1.3-2.6-3.4-5-5.1-7.3-2.1-2.9-4.1-6-6.4-8.8,1.9-1.1,4.1-.9,6.2-.9l11.1-.7c5.2-.4,10.1-1,15.2-2.1v-.2Z"/>
    <path class="cls-36" d="M362.5,410.4l32.3,20.9c4.6,2.8,9.3,6.1,14,8.5,6.8,5.8,15.7,10.3,23.3,15.1,1.4.9,5.1,2.7,5.9,3.9,2.4,1.3,4.6,2.4,7.2,3.3l.6.2c-.3.6-.6,1.2-1,1.7l1.2,5-1.4,2.5-4.4,9.3c-8.2,14.9-15.1,30.8-22.4,46.2-3,6.3-6.9,12.6-9,19.2h-2.7l-.6-.3.6-.5-21.4-13.9c-3.5-2.2-7.3-4.3-10.4-7h-.5c-7.6-5.8-16.1-11-24-16.7-2.8-2-5.9-3.9-8.5-6.2l.4-.2c-.4-.8-.7-1-1.5-1.4-1.4-.9-2.3-1.7-3.3-3.1,1.9-.1,3.7-.3,5.5-1.1-1.8.1-3.4.7-5.2.3-.8-.2-1-.3-1.8,0-1.2.3-.2.2-1.5.3h-.6l.8-1.5.6-6.7c.1-10.1,1.2-20.3.7-30.4-.3-4.7-1.7-9.4-2.3-14.1,11.5,2.5,23.6,3,35.4,3.4l5.1-.8c-.5-3.6-2.3-7-3.4-10.5-2-6.2-3.3-12.7-5.6-18.8-.7-1.8-1.8-3.4-2.5-5.3l-.3-.8.6-.3v-.2Z"/>
    <path class="cls-22" d="M378,447.4l44.7,11.5c3.8.9,10.3,3.1,14.1,2.6,2.1.3,4.1.7,6.2,1.3l-22,1.7c-21.2,1.3-41.9,2.5-61.4,11.9-4.6,2.2-8.8,5.3-13.1,8.1.2-.7.4-1.1.9-1.6l.4-.4-.2-.8c1.6-1.6,3.1-2.4,4.7-3.7,2.7-2.2,5.2-5.2,7.7-7.6,4.5-4.5,8.9-8.9,12.9-13.9,2.3-2.8,4.5-5.2,5.1-8.9v-.2Z"/>
    <path class="cls-32" d="M333.2,443.4c11.5,2.5,23.6,3,35.4,3.4l5.1-.8,4.2,1.4c-.7,3.7-2.8,6-5.1,8.9-4,5-8.4,9.4-12.9,13.9s-5,5.4-7.7,7.6c-1.7,1.4-3.2,2.1-4.7,3.7l.2.8-.4.4c-.5.6-.7.9-.9,1.6-4.2,3.2-8.6,6.3-12.1,10.4l.6-6.7c.1-10.1,1.2-20.3.7-30.4-.3-4.7-1.7-9.4-2.3-14.1h-.1Z"/>
    <path class="cls-27" d="M373.8,446l4.2,1.4c-.7,3.7-2.8,6-5.1,8.9-4,5-8.4,9.4-12.9,13.9s-5,5.4-7.7,7.6c-1.7,1.4-3.2,2.1-4.7,3.7l.2.8-.4.4c-.5.6-.7.9-.9,1.6-4.2,3.2-8.6,6.3-12.1,10.4l.6-6.7c3.8-4.2,6.8-9.8,10.1-14.5,6.9-9.7,14.7-18.7,23.7-26.6l5.1-.8h-.1Z"/>
    <path class="cls-30" d="M362.5,410.4l32.3,20.9c4.6,2.8,9.3,6.1,14,8.5,6.8,5.8,15.7,10.3,23.3,15.1,1.4.9,5.1,2.7,5.9,3.9-.6.8-.4.4-.6,1.2l-.7.6v.9c-3.8.6-10.4-1.7-14.1-2.6l-44.7-11.5-4.2-1.4c-.5-3.6-2.3-7-3.4-10.5-2-6.2-3.3-12.7-5.6-18.8-.7-1.8-1.8-3.4-2.5-5.3l-.3-.8.6-.3h0Z"/>
    <path class="cls-30" d="M374.5,524.4c1.8-3.2,7.5-7,10.4-9.6l46-39.4c3.9-3.2,8.7-5.6,12.1-9.4l1.9-2.1,1.2,5-1.4,2.5-4.4,9.3c-8.2,14.9-15.1,30.8-22.4,46.2-3,6.3-6.9,12.6-9,19.2h-2.7l-.6-.3.6-.5-21.4-13.9c-3.5-2.2-7.3-4.3-10.4-7h0Z"/>
    <path class="cls-41" d="M505.8,583.6c2.4-1.5,4.5-4.5,6.6-6.5,6.1-6,12.9-13.2,20-17.9.7-.5,2.3-1.6,3-1.7.7,0,3,.8,3.9,1l10.7,2.1c.9.9,2,1.7,2.6,2.8.7,1.3,1.4,2.3,2.3,3.4l.3-.5c.3-.8.5-1.4,1-2.1l.4-.7,4.9,8-1,1c1.7,4.7,6.6,12.2,10.3,15.4,1.5,1.3,2.4,3.5,3.5,5.1l7.1,10.6c5.2,7.5,11,14.5,16,22.3,3.4,4.3,6.7,8.8,10.4,12.9,1.3,1.5,2.6,3.1,4.4,4l3.1,3.6,3.6,2c.9,2.1,1.7,4.2,2.4,6.4.7,7.6,1.7,15.6,1.2,23.3l1.9,55.3-.5,1.3c-1.6,0-4.7-2-6.1-2.8l-20.5-10.9-26.4-12.4c-16.9-7.7-34-14.9-51.6-20.7l-16.4-9.1h-.2c0,0-.5-.3-.5-.3,0-5.9,1-12,1.5-17.9l4-43.2c.7-8.4,1.7-18,0-26.2l-.5-.2-1.1-1.4-1.8-1.5c.9-1.3,1.7-1.5,3.1-2.1-.7-.8-1.2-1.5-1.8-2.4h.2Z"/>
    <path class="cls-27" d="M567.5,622.2c4.4,1.8,8.5,4.4,12.7,6.6l28.2,14.6c2.1,1,4.7,3.1,7,3.1l3.6,2c.9,2.1,1.7,4.2,2.4,6.4.7,7.6,1.7,15.6,1.2,23.3-.5-1.2-.9-1.6-.6-2.9-.9-2.6-.2-4.3-.6-6.8v-.7c0-1,.2-1.5,0-2.5-.6-2.1,0-4.2-.5-6.2-.2-.8-.6-1-.5-1.8,0-1.4.3-2.2-.4-3.4-.4-.7-.5-.9-.6-1.8,0-.9-.3-1.3-.8-2.1h-.9c-1.5,1.9-1.5,7.2-1.1,9.6,0,.7.6,1,.8,1.7.7,2.1.4,5.3,0,7.5h-.6c0-1.8.4-4.6,0-6.1-.2-.7-.7-1-.8-1.9-.2-3.6,0-7.3.2-11l-39.4,14.5c-6.1,2.2-13.1,5.4-19.5,6.3l-.8-.9-7.2-14.9c1.7-1.4,3.9-2.4,5.8-3.4l13.6-7c5.3-2.7,10.9-6.2,16.4-8.2l2-.7c1-.6,1-.5,2.2-.5-4.8-3.1-10.3-5.3-15.2-8.3-2-1.2-4.2-2-5.8-3.6l-.6-.6v-.3Z"/>
    <path class="cls-13" d="M513.9,595.2c15.8,8,32.1,14.6,47.5,23.4,1.9,1.1,4.6,2.1,6.2,3.5l.6.6c1.7,1.6,3.9,2.4,5.8,3.6,4.9,3,10.4,5.2,15.2,8.3-1.2,0-1.1,0-2.2.5l-2,.7c-5.5,2-11.1,5.5-16.4,8.2l-13.6,7c-1.9,1-4.2,2-5.8,3.4l7.2,14.9c-2.7-2-4-6-5.5-9s-1.5-3.2-2.5-4.7l-3.4,1c1.3-.8,2.4-1.6,3.6-2.6-2.3-6-6.8-12.2-10-17.8l-12.9-22.8c-2.6-4.8-5.2-11.2-8.9-15.1l-2.8-3.4v.3Z"/>
    <path class="cls-33" d="M507.8,591.2l6.1,4,2.8,3.4c3.7,4,6.3,10.4,8.9,15.1l12.9,22.8c3.2,5.6,7.7,11.8,10,17.8-1.1,1-2.3,1.8-3.6,2.6l-41.7,21.1-.4.9h-.2c0,0-.5-.3-.5-.3,0-5.9,1-12,1.5-17.9l4-43.2c.7-8.4,1.7-18,0-26.2h.2Z"/>
    <path class="cls-43" d="M505.8,583.6c2.4-1.5,4.5-4.5,6.6-6.5,6.1-6,12.9-13.2,20-17.9.7-.5,2.3-1.6,3-1.7.7,0,3,.8,3.9,1l10.7,2.1c.9.9,2,1.7,2.6,2.8.7,1.3,1.4,2.3,2.3,3.4l.3-.5c.3-.8.5-1.4,1-2.1l.4-.7,4.9,8-1,1c1.7,4.7,6.6,12.2,10.3,15.4,1.5,1.3,2.4,3.5,3.5,5.1l7.1,10.6c5.2,7.5,11,14.5,16,22.3,3.4,4.3,6.7,8.8,10.4,12.9,1.3,1.5,2.6,3.1,4.4,4l3.1,3.6c-2.3,0-4.9-2.1-7-3.1l-28.2-14.6c-4.2-2.3-8.2-4.9-12.7-6.6-1.6-1.4-4.3-2.5-6.2-3.5-15.4-8.8-31.7-15.4-47.5-23.4l-6.1-4-.5-.2-1.1-1.4-1.8-1.5c.9-1.3,1.7-1.5,3.1-2.1-.7-.8-1.2-1.5-1.8-2.4h.3Z"/>
    <path class="cls-32" d="M507.5,585.9c24.2,8.3,48.1,19.8,70.7,31.5l17.5,9.5,1.7-1.2c3.4,4.3,6.7,8.8,10.4,12.9,1.3,1.5,2.6,3.1,4.4,4l3.1,3.6c-2.3,0-4.9-2.1-7-3.1l-28.2-14.6c-4.2-2.3-8.2-4.9-12.7-6.6-1.6-1.4-4.3-2.5-6.2-3.5-15.4-8.8-31.7-15.4-47.5-23.4l-6.1-4-.5-.2-1.1-1.4-1.8-1.5c.9-1.3,1.7-1.5,3.1-2.1h.2Z"/>
    <path class="cls-15" d="M502.7,679h.2c0,0,16.4,9,16.4,9,17.6,5.8,34.7,13.1,51.6,20.7l26.4,12.4,20.5,10.9c1.5.8,4.5,2.9,6.1,2.8l.5-1.3.9.3c1.1,2.5,3,3.6,5.3,4.9l16.7,11.1,11.6,7.9c3,2.2,9,8,12.4,8.5l44.4,89.9c1.1,1.6,1.9,3,2.6,4.8-1-.2-1.5-.3-2.3-.9l-125.5-56.4c-1.4,1.1-1.4,2-3.3,2.5-4.7-2.2-9.1-6.5-13.2-9.8-14.5-11.3-29.7-22.8-42.7-35.8,0-.9,0-1.7-.2-2.5l-8.2-20-9.1-25.8-10.4-27.2c-.6-1.6-1.5-3.3-1.7-5l1-1h0Z"/>
    <path class="cls-44" d="M564.1,727.8c-4.8-2.8-8.1-8.2-12.6-11.5-1.3-1-2-2.4-3.3-3.5v-1.5c0,0,.7-.2.7-.2-.8-.8-2.2-1.8-2.4-3v-.5l.7-.2,4,3-1.1.6c.5.6.9,1,1.6,1.3,2.7,1.1,6.4,6.3,8.6,8.5.5.5.9.4,1.4.7,2,1.3,5.9,5.6,6.9,7.9l.2.2c2.1,2.8,4.8,5.1,7.2,7.6l8.4,8.8c3.6,4,8.3,7.9,11.4,12.1-4.7-1-11.3-9-14.4-12.8-4.8-6.2-11.7-11.9-17.3-17.4h0Z"/>
    <path class="cls-10" d="M668,817.3c2.1.9,3.9,2.6,5.8,3.9l11,8.5c6.1,4.8,12.5,9.4,18.3,14.6,3.7,3.4,7,7.2,10.6,10.7.7.6,1.2.8,2.1,1,1.1,1.6,1.9,3,2.6,4.8-1-.2-1.5-.3-2.3-.9-.4-1.1-1-1.9-1.7-2.8-3-1-6.5-4.5-9.3-6.3-5.6-3.6-11.7-6.6-17.4-10.1-3.9-2.5-7.3-5.4-11-8.1l-7-6.1.4-.3,1.8,1.7c1.1.8,2.2,2,3.2,2.8,1.3.9.2,0,1.3.8.8.8,1.5,1.5,2.5,2.2l12.9,9.1-2.6-4.8c-.6-1.7-1.3-2.6-2.2-4.1-.7-1.2-1.1-1.8-2.2-2.7l-.4-.3-16.4-12.5v-1.1Z"/>
    <path class="cls-6" d="M502.7,679h.2c0,0,16.4,9,16.4,9,8.6,8.6,15.2,19,21.9,29.1,11.9,18,23.5,36.7,33.5,55.9l10,19.3c1.9,3.8,3.4,8,5.8,11.4-1.4,1.1-1.4,2-3.3,2.5-4.7-2.2-9.1-6.5-13.2-9.8-14.5-11.3-29.7-22.8-42.7-35.8,0-.9,0-1.7-.2-2.5l-8.2-20-9.1-25.8-10.4-27.2c-.6-1.6-1.5-3.3-1.7-5l1-1h0Z"/>
    <path class="cls-3" d="M568.8,729.4c3.9.7,7.3,3.4,10.9,5.2l23.6,9c2.1.9,5,1.5,7.3,2.1l1,.3c1.7.4,3.5.5,5.2.8l2.7.4c1.7.3,3.4.2,5.1.5,1.2.2,2.6,0,3.8,0,2.9-.2,5.3.4,8.1,1.1,1.3.3,2.3.7,3.5,1.2,2.2,1,5.9,2.3,8.2,2.3l.5.4c.8.6,1,.4,1.8.7l1.3.7c-.3-.8,0-.5-.7-.9-1.7-1-2.7-1.9-3.7-3.6l11.6,7.9c3,2.2,9,8,12.4,8.5l44.4,89.9c-.9-.2-1.5-.4-2.1-1-3.6-3.5-6.9-7.3-10.6-10.7-5.7-5.2-12.2-9.8-18.3-14.6l-11-8.5c-1.8-1.3-3.7-3-5.8-3.9-3-2.8-6.6-5.1-9.9-7.6l-17.2-12.9-10.3-8.4c-12.2-9.7-23.8-19.3-34.8-30.4-3.1-4.3-7.8-8.2-11.4-12.1l-8.4-8.8c-2.4-2.5-5.1-4.8-7.2-7.6h0Z"/>
    <path class="cls-22" d="M468.5,417.5l13.7,9.4c1.2,3,4.9,4.6,7.8,5.9,2.8,1.1,5,3.9,7,6.1.2-1,.8-2,1.2-3l.8,1.6-.6,1.3v1.1c-.1,0,.5.6.5.6,5.2,6.2,11.7,10,18.1,15,11.8,9.2,24.4,18.3,35.2,28.6,12.1,11.4,20.9,27.1,30.6,40.5l7.9,10.7c.9,1.2,2.4,2.5,2.3,4h-.6c-9.4,4.5-19.5,7.1-29.3,10.4-3.6,1.2-10.5,2.7-13.2,5.3,2,2.2,4,4.3,5.5,6.8,0,.2,1.1,1.4,1.2,1.6l-.4.7c-.4.7-.7,1.3-1,2.1l-.3.5c-.9-1.1-1.7-2.1-2.3-3.4-.6-1.1-1.7-2-2.6-2.8l-10.7-2.1c-.9-.2-3.2-1.1-3.9-1s-2.3,1.3-3,1.7c-7.1,4.7-13.9,11.9-20,17.9-2.1,2-4.1,5-6.6,6.5.6.9,1,1.6,1.8,2.4-1.4.6-2.2.8-3.1,2.1h-.5c-3.5-2.6-7.8-4.1-11.8-5.7l-11.8-5.1-67.7-29.4-3.6-1.3v-.4c2-6.6,6-12.9,8.9-19.2,7.3-15.4,14.1-31.3,22.4-46.2l4.4-9.3,1.4-2.5-1.2-5c.4-.5.7-1.1,1-1.7l.5-.8v-.6c1.4-7,6.7-14.1,10-20.5l11-21.9,1-1h0Z"/>
    <path class="cls-41" d="M440.3,480.7l.4-.3c2.1-1.8,2.8-4.4,4-6.9l2.9,5.5,3.9,6.5c2.8,5.4,16.1,21.4,15.9,26l-31,21.1-15.9,10.9c-2.3,1.4-4.3,2.8-6.9,3.6-.7.2-.4,0-1.1.5l-3.6-1.3v-.4c2-6.6,6-12.9,8.9-19.2,7.3-15.4,14.1-31.3,22.4-46.2v.2Z"/>
    <path class="cls-32" d="M468.5,417.5l13.7,9.4c1.2,3,4.9,4.6,7.8,5.9,2.8,1.1,5,3.9,7,6.1l.4,1.1c-.8,1-1.2,1.3-1.4,2.5v.8c-.6,2.8-1.6,3.6-3.7,5.4-4.3,3.9-7.7,12-10.4,17.2l-11.1,20.9c-1.9,3.9-3.2,8.5-5.7,12l-14.6-32.2c-1.6,1.2-4.4,3.3-5.1,5.1l1.4,2.7-.3.4-2-3.5,1.4-2.5-1.2-5c.4-.5.7-1.1,1-1.7l.5-.8v-.6c1.4-7,6.7-14.1,10-20.5l11-21.9,1-1,.3.2Z"/>
    <path class="cls-23" d="M490.1,432.8c2.8,1.1,5,3.9,7,6.1l.4,1.1c-.8,1-1.2,1.3-1.4,2.5v.3c-5.9,4.9-12.5,7.3-19.3,10.4-10.2,4.6-21.4,9.4-30.6,15.7l-1.2-5c.4-.5.7-1.1,1-1.7l.5-.8c1.1.3.6.4,1.6-.3,4.3-2.8,7.9-7.1,11.9-10.4,6.5-5.3,13.3-10,20.7-13.9,3.1-1.6,6.3-2.7,9.5-4.1h-.1Z"/>
    <path class="cls-30" d="M468.5,417.5l13.7,9.4c1.2,3,4.9,4.6,7.8,5.9-3.1,1.5-6.4,2.6-9.5,4.1-7.5,3.8-14.3,8.5-20.7,13.9-4,3.3-7.6,7.6-11.9,10.4-1,.7-.5.6-1.6.3v-.6c1.4-7,6.7-14.1,10-20.5l11-21.9,1-1h.2Z"/>
    <path class="cls-13" d="M498.3,435.9l.8,1.6-.6,1.3v1.1c-.1,0,.5.6.5.6,5.2,6.2,11.7,10,18.1,15,11.8,9.2,24.4,18.3,35.2,28.6,12.1,11.4,20.9,27.1,30.6,40.5l7.9,10.7c.9,1.2,2.4,2.5,2.3,4h-.6c-9.4,4.5-19.5,7.1-29.3,10.4-3.6,1.2-10.5,2.7-13.2,5.3,2,2.2,4,4.3,5.5,6.8,0,.2,1.1,1.4,1.2,1.6l-.4.7c-.4.7-.7,1.3-1,2.1l-.3.5c-.9-1.1-1.7-2.1-2.3-3.4-.6-1.1-1.7-2-2.6-2.8l-10.7-2.1c-.9-.2-3.2-1.1-3.9-1s-2.3,1.3-3,1.7c-7.1,4.7-13.9,11.9-20,17.9-2.1,2-4.1,5-6.6,6.5l-1.1-2.9c-1.7-7-4.4-13.7-6.8-20.5l-7.8-23.2c-1.6-4.8-4.7-10.9-4.4-15.9l.6-.4c3.9-21.8,10.7-43.4,10.9-65.7l-.2-5.6-.7-6v-.5c-.1,0,0-.3,0-.3.2-1.2.6-1.6,1.4-2.5l-.4-1.1c.2-1,.8-2,1.2-3h-.3Z"/>
    <path class="cls-18" d="M543.3,511.7c4.1,2.2,7.9,5,11.8,7.5l21.5,12.7c2.8,1.6,5.6,3.1,8.6,4.4,2.2,1,5.5,1.6,7.3,3.1-9.4,4.4-19.5,7.1-29.3,10.3-3.6,1.2-10.5,2.7-13.2,5.3,2,2.2,4,4.3,5.5,6.8h-1.8c-2-.2-3.7-3.7-4.9-5.1-1.3-1.5-2.7-2.6-3.7-4.4-.4-.8-.6-1.2-1.3-1.7l-.5-.3v-.8c0,0,.4.2.4.2l.8-.5c.3-7.3.4-14.3,0-21.6-.3-5.2-1.5-10.7-1.1-15.9h0Z"/>
    <path class="cls-47" d="M496.1,442.5l1.2-.6c3.3,2.7,5.6,6.7,8.1,10.1,7.5,10.1,14,20.6,20.6,31.3,5.1,8.3,10.5,16.5,14.4,25.5.9,1,1.8,2,2.9,2.8-.4,5.2.8,10.7,1.1,15.9.5,7.3.3,14.3,0,21.6l-.8.5-.5-.2c-.4-.9-.9-1.5-1.5-2.3-2.1-3.9-5-7.5-7.3-11.3l-14.9-25.9c-6.5-12.3-12.1-25.6-17.2-38.5-1.4-3.5-2.4-7.3-3.8-10.8-.8-2-1.2-3.7-1.5-5.8l-.2-5.6-.7-6v-.5c-.1,0,0-.3,0-.3h.1Z"/>
    <path class="cls-18" d="M496.1,442.5l1.2-.6c3.3,2.7,5.6,6.7,8.1,10.1,7.5,10.1,14,20.6,20.6,31.3,5.1,8.3,10.5,16.5,14.4,25.5l-10.2-3.1.2-.3c1.8.3,4,.9,5.8,1.5,1,.3,1.4.4,2.5.5l-1.9-4-1-1.6c-.9-1.9-2.3-3.7-3.1-5.5-1.5-3.6-4.4-7.3-6.4-10.7-.6.8.4,1.5.2,2.7-1.6-.9-2.8-3.1-3.5-4.8-.9-2.1-2.4-4-3.5-6-4.4-7.9-9.3-15.4-14.6-22.7-1.2-1.7-2.2-3.6-3.4-5.2-.6-.8-1.1-1.4-1.5-2.3-.6-1.2-1.3-1.4-2.4-2l-.6.4c0,1,.1,1.9,0,2.8v.8l-.8-6v-.5c-.1,0,0-.3,0-.3h-.1Z"/>
    <path class="cls-1" d="M497,454.9c.4,2.1.7,3.9,1.5,5.8,1.4,3.5,2.4,7.2,3.8,10.8,5.1,12.9,10.7,26.3,17.2,38.5l14.9,25.9c2.3,3.8,5.2,7.5,7.3,11.3-1.6-.4-2.5-1.2-3.9-1.9l-15.9-8.3c-11.9-6-23.8-11.7-36.4-16.1l.6-.4c3.9-21.8,10.7-43.4,10.9-65.7h0Z"/>
    <path class="cls-37" d="M485.6,521c12.5,4.5,24.5,10.1,36.4,16.1l15.9,8.3c1.4.6,2.3,1.5,3.9,1.9.6.8,1.1,1.4,1.5,2.3v.8c0,0,.6.3.6.3.7.6.9,1,1.3,1.7,1,1.8,2.4,2.8,3.7,4.4,1.2,1.4,2.9,5,4.9,5.2h1.8c0,0,1.1,1.3,1.2,1.5l-.4.7c-.4.7-.7,1.3-1,2.1l-.3.5c-.9-1.1-1.7-2.1-2.3-3.4-.6-1.1-1.7-2-2.6-2.8l-10.7-2.1c-.9-.2-3.2-1.1-3.9-1s-2.3,1.3-3,1.7c-7.1,4.7-13.9,11.9-20,17.9-2.1,2-4.1,5-6.6,6.5l-1.1-2.9c-1.7-7-4.4-13.7-6.8-20.5l-7.8-23.2c-1.6-4.8-4.7-10.9-4.4-15.9h-.3Z"/>
    <path class="cls-6" d="M409,546.5l3.6,1.3,67.7,29.4,11.8,5.1c4,1.6,8.3,3.1,11.8,5.7h.5l1.8,1.6,1.1,1.4.5.2c1.7,8.3.6,17.8,0,26.2l-4,43.2c-.6,5.9-1.5,12-1.5,17.9l-14-16.7c3.2,19.8,2.3,39.9,2.4,59.9,1.2,3.4.1,6.7,1,10,.4,1.5,0,3,0,4.6l.2,7.2,1.1.3-1.2.4-.3,1.3c-1,.9-1,1.1-1.3,2.4-5.1,1.1-10,1.7-15.2,2.1l-11.1.7c-2.1,0-4.4-.2-6.2.9l-.3-.3-.5-.5c-1.1-1-2.1-2.4-3.6-2.7-.8-.2-.9,0-1.5.6l-.3,3.3-1.1-3.1c-2.5-2.2-4.9-4.2-8-5.5l-.8.7-.7-1.9c-1.7,0-3.4.8-5,1.3-3.5,1.2-9.2,3.5-12.8,2.6.8-4.6.8-10.7-.8-15.1-1.1-3.3-3.2-6.6-4.8-9.6l-12.4-21.3-16-26.9c-5.3-5.7-9.8-12.4-14.3-18.7l-13.2-18.9c1.2-1.8,2.1-3.8,3.3-5.7,6.6-10.5,12.5-22,20-31.8l1-1.2,23.3-50.4h-.2Z"/>
    <path class="cls-22" d="M385.7,596.9l.3.6.4,6.4,3,69-.6.3c-5.3-5.7-9.8-12.4-14.3-18.7l-13.2-18.9c1.2-1.8,2.1-3.8,3.3-5.7,6.6-10.5,12.5-22,20-31.8l1-1.2h.1Z"/>
    <path class="cls-9" d="M386.1,597.5h.3c.2.5.4,1,.7,1.4,2.4,2.4,7.9,4,11,5.5l33.9,15.9c3.6,1.6,15.7,6.1,17.8,8.7v.5c-.1,0-48.7,34.1-48.7,34.1l-.4.3c0-3.3-.9-6.7-1.5-9.9l-4.1-19c-1.7-7.6-2.9-16.7-5.9-23.8l-.2-.5c-.8-2.3-1.4-4.6-2.3-6.9l-.4-6.4h-.2Z"/>
    <path class="cls-20" d="M503.9,588h.5l1.8,1.6c-2.7,2.1-5.2,4.5-8,6.5l-26,17.5-16.2,11.6c-1.8,1.3-4.2,3.6-6.4,3.9-2.1-2.7-14.1-7.1-17.8-8.7l-33.9-15.9c-3.1-1.5-8.6-3.2-11-5.5-.3-.3-.5-.8-.7-1.2l117.5-9.6.2-.2Z"/>
    <path class="cls-24" d="M507.3,591l.5.2c1.7,8.3.6,17.8,0,26.2l-4,43.2c-.6,5.9-1.5,12-1.5,17.9l-14-16.7c3.2,19.8,2.3,39.9,2.4,59.9v20.6l-34.6-32.1c3.8-5.5,5.8-13,8.4-19.2l11.1-27c1.6-4.1,3.5-8.2,4.7-12.4l16.1-35.7c3.7-8.3,6.5-17,11-24.8h-.1Z"/>
    <path class="cls-19" d="M389.5,672.8c3.6.7,6.5,2.9,9.6,4.6l15.4,8.5,28,16c4.6,2.7,9.2,5.1,13.5,8.2l34.5,32.1v-20.6c1.3,3.4.2,6.7,1.1,10,.4,1.5,0,3,0,4.6l.2,7.2,1.1.3-1.2.4-.3,1.3c-1,.9-1,1.1-1.3,2.4-5.1,1.1-10,1.7-15.2,2.1l-11.1.7c-2.1,0-4.4-.2-6.2.9l-.3-.3-.5-.5c-1.1-1-2.1-2.4-3.6-2.7-.8-.2-.9,0-1.5.6l-.3,3.3-1.1-3.1c-2.5-2.2-4.9-4.2-8-5.5l-.8.7-.7-1.9c-1.7,0-3.4.8-5,1.3-3.5,1.2-9.2,3.5-12.8,2.6.8-4.6.8-10.7-.8-15.1-1.1-3.3-3.2-6.6-4.8-9.6l-12.4-21.3-16-26.9.6-.3h-.1Z"/>
    <path class="cls-1" d="M409,546.5l3.6,1.3,67.7,29.4,11.8,5.1c4,1.6,8.3,3.1,11.8,5.7l-117.5,9.6h-.3c0,0-.3-.7-.3-.7l23.3-50.4h0Z"/>
    <path class="cls-44" d="M664,358c6-1.4,11-4.9,17.1-6.2-3.6,7.4-7.6,14-12.5,20.6-6.5,6.9-11.8,15-17.9,22.3-1.2,1.4-5,4.6-5.4,6.1l99.5-5.4-30.4,30.1c-7.3,7.3-14.8,15.8-23.1,21.9l-28.4,24.7c-3.1,2.9-8.9,6.9-10.6,10.9v1c0,.4,0,1-.3,1.3-.6.7-3.3,1.7-4.3,2.3l-17.6,9.4-21.5,12.3c-1.5.9-6.7,3.7-7.3,5.3-.9,2.3-.9,7-1.3,9.6-.3,3.8-2.1,11.9-4.6,14.6-.8.9-1.1.6-2.2.5,0-1.5-1.4-2.8-2.3-4l-7.9-10.7c-9.7-13.5-18.5-29.1-30.6-40.5-10.9-10.3-23.4-19.4-35.2-28.6-6.4-4.9-12.9-8.7-18.1-15l-.6-.6v-1.1c.1,0,.8-1.3.8-1.3l-.8-1.6c1-1.1,1.6-4.7,2.4-6.3l1.5-.4,3.7-5.7h.5l-1.1,3.1c.9.8.8,1.1,1.1,2.2.9-.9,1.6-1.7,1.9-3v-.5c.9-.6.5-.5,1.3-.5l-.8,1.5c-1.6,3.2-4.1,5.4-5.7,8.5,5.4-3.5,9.7-9.1,14.9-13.1,7-5.5,15.4-9.7,22.1-15.4,1.2-1,1.6-2.5,2.1-3.9l.3.3-.4,1.2c1.3,0,1.6-.7,2.6-1.2l.6-.2.9-.8c1.5-.8,0,.2,1.2-.6,1.4-1.1,3.1-1.9,4.4-3l.4-.4h.6c.4-.5.7-1,1.4-1.3,1-.5,1.6-.8,2.4-1.7l.5-.6c1-.3.8-.6,1.5-1l.7-.2.5-.5c.6-.5,1.2-.7,1.8-1.3l.4-.5c1.5-.4,3.4-2.3,4.5-3.5,2.6-.9,4.3-4.1,6.5-5.7,2.1-1.6,3.9-3.4,5.7-5.3l1.1-1.2c.7-.7,1.3-1.2,2.3-1.2-4.9,6-11.6,12.2-17.8,16.9-4.3,3.2-9.4,6-13.1,9.9,3.4-1.3,6.7-3.1,10-4.7l21.3-9.9c18.3-8.2,37.5-14.7,56.6-20.8,8-2.6,16.5-5.8,24.9-6.9l-.2-.2Z"/>
    <path class="cls-10" d="M652.2,483c-1.8-2-3.1-4.4-4.6-6.6l-9.3-12.9-15.2-20.4c-2-2.7-5.5-6.2-6.6-9.3l37.8,6.4,23.2,3.9c4.6.8,9.5,1.2,13.7,3.3l-28.4,24.7c-3.1,2.9-8.9,6.9-10.6,10.9h0Z"/>
    <path class="cls-2" d="M576.8,494c-2.1-.8-3.6-2.9-5.4-4.3-3.3-2.7-7.9-5-10.4-8.5-.5-.7-1.7-1-2.5-1.4-.4-.9-.5-.9-.3-1.9,1.2-1,2.7-.7,4.2-.7,1-.7,1.3-.5,2.5-.4,1,0,1.5.1,2.4,0,2-.4,4.2-.1,6.1-.6.7-.2.9-.4,1.7-.4h2.8c1.7.1,3.3-.2,4.9,0h5.1c1.2,0,1.7.6,2.7,1.2l57.4,8.8,4.2-1.8c-.2.4-.2,1-.5,1.3-.6.7-3.3,1.7-4.3,2.3l-17.6,9.4-21.5,12.3c-1.5.9-6.7,3.7-7.3,5.3-.9,2.3-.9,7-1.3,9.6-.3-1.6-.5-3.1-.6-4.7.8-.8.5-3.3.5-4.5.7-.7.5-.3.5-1.5-1.2-2.8-6.3-5.1-8.7-7l-8-6.6c-2.4-1.9-4.8-3.3-6.7-5.9h0Z"/>
    <path class="cls-42" d="M585.7,486.5c6.2-1.1,13.6.8,20,1l35,.5c-1.7.7-3.3.4-5,.7-4.9.9-11.5,1.1-16.4,0-1.3-.3-11-.2-11.6.3l10.2.2-.5.5c-10.5-.1-21.7.1-31.8-3.1h0Z"/>
    <path class="cls-14" d="M567.4,482.4l-8.6-3.6c10.5-1.8,21.3-2.3,31.9-1.8l57.4,8.8c-2,1.6-4.8,2.1-7.3,2.2l-35-.5c-6.4-.2-13.8-2.1-20-1l-18.4-4.1h0Z"/>
    <path class="cls-18" d="M499.5,438.7h.8c.9.2,1.3,0,2.1-.2,2.9-1.1,7.2-.6,10.3-.6l21,.4,73.2,2.5-.4.4c-3.5,3.3-6,8.3-8.3,12.5-.4.8-2,4.3-2.6,4.6-2.1,1.5-40.3,5.1-45.4,4.9-.9,0-1.6-.2-2.5-.5l-.5-.2c-3.3-1.2-6.7-3.2-9.8-4.8l-22.1-11.1c-5-2.5-10-5.2-15.4-6.8l-1.1.7-.6-.6v-1.1c.1,0,1.1-.1,1.1-.1h.2Z"/>
    <path class="cls-37" d="M582.1,373.5c-4.9,6-11.6,12.2-17.8,16.9-4.3,3.2-9.4,6-13.1,9.9,3.4-1.3,6.7-3.1,10-4.7l21.3-9.9c18.3-8.2,37.5-14.7,56.6-20.8,8-2.6,16.5-5.8,24.9-6.9-22.4,17.1-47.5,31.2-71.7,45.7-12.2,7.3-24.3,15.9-37.5,21.3-10.9,4.4-22.3,6.2-33.8,8-5.8.9-12.1,1.5-17.7,3.1-1.2.3-2.8,1.8-3.8,2.7h-1c0,.1.6-1.2.6-1.2l-.8-1.6c1-1.1,1.6-4.7,2.4-6.3l1.5-.4,3.7-5.7h.5l-1.1,3.1c.9.8.8,1.1,1.1,2.2.9-.9,1.6-1.7,1.9-3v-.5c.9-.6.5-.5,1.3-.5l-.8,1.5c-1.6,3.2-4.1,5.4-5.7,8.5,5.4-3.5,9.7-9.1,14.9-13.1,7-5.5,15.4-9.7,22.1-15.4,1.2-1,1.6-2.5,2.1-3.9l.3.3-.4,1.2c1.3,0,1.6-.7,2.6-1.2l.6-.2.9-.8c1.5-.8,0,.2,1.2-.6,1.4-1.1,3.1-1.9,4.4-3l.4-.4h.6c.4-.5.7-1,1.4-1.3,1-.5,1.6-.8,2.4-1.7l.5-.6c1-.3.8-.6,1.5-1l.7-.2.5-.5c.6-.5,1.2-.7,1.8-1.3l.4-.5c1.5-.4,3.4-2.3,4.5-3.5,2.6-.9,4.3-4.1,6.5-5.7,2.1-1.6,3.9-3.4,5.7-5.3l1.1-1.2c.7-.7,1.3-1.2,2.3-1.2v-.3Z"/>
  </g>
</svg>